<?xml version="1.0" encoding="UTF-8" standalone="no"?>
<!DOCTYPE svg PUBLIC "-//W3C//DTD SVG 1.1//EN"
 "http://www.w3.org/Graphics/SVG/1.1/DTD/svg11.dtd">
<!-- Generated by graphviz version 2.40.1 (20161225.0304)
 -->
<!-- Title: G Pages: 1 -->
<svg width="833pt" height="328pt"
 viewBox="0.00 0.00 833.20 327.89" xmlns="http://www.w3.org/2000/svg" xmlns:xlink="http://www.w3.org/1999/xlink">
<g id="graph0" class="graph" transform="scale(1 1) rotate(0) translate(21.6 306.2943)">
<title>G</title>
<polygon fill="#111111" stroke="transparent" points="-21.6,21.6 -21.6,-306.2943 811.6,-306.2943 811.6,21.6 -21.6,21.6"/>
<!-- CombatState.js -->
<g id="node1" class="node">
<title>CombatState.js</title>
<path fill="none" stroke="#ff6c60" d="M126.3333,-186C126.3333,-186 25.6667,-186 25.6667,-186 21.8333,-186 18,-182.1667 18,-178.3333 18,-178.3333 18,-170.6667 18,-170.6667 18,-166.8333 21.8333,-163 25.6667,-163 25.6667,-163 126.3333,-163 126.3333,-163 130.1667,-163 134,-166.8333 134,-170.6667 134,-170.6667 134,-178.3333 134,-178.3333 134,-182.1667 130.1667,-186 126.3333,-186"/>
<text text-anchor="middle" x="76" y="-170.8" font-family="Arial" font-size="14.00" fill="#ff6c60">CombatState.js</text>
</g>
<!-- Enemy.js -->
<g id="node2" class="node">
<title>Enemy.js</title>
<path fill="none" stroke="#c6c5fe" d="M640.3333,-266C640.3333,-266 579.6667,-266 579.6667,-266 575.8333,-266 572,-262.1667 572,-258.3333 572,-258.3333 572,-250.6667 572,-250.6667 572,-246.8333 575.8333,-243 579.6667,-243 579.6667,-243 640.3333,-243 640.3333,-243 644.1667,-243 648,-246.8333 648,-250.6667 648,-250.6667 648,-258.3333 648,-258.3333 648,-262.1667 644.1667,-266 640.3333,-266"/>
<text text-anchor="middle" x="610" y="-250.8" font-family="Arial" font-size="14.00" fill="#c6c5fe">Enemy.js</text>
</g>
<!-- CombatState.js&#45;&gt;Enemy.js -->
<g id="edge1" class="edge">
<title>CombatState.js&#45;&gt;Enemy.js</title>
<path fill="none" stroke="#757575" d="M93.8868,-186.1322C115.4001,-199.6286 152.9993,-221.6661 188,-234.5 326.3984,-285.2471 370.5842,-293.5823 517,-276.5 531.7197,-274.7827 547.4892,-271.5855 561.7841,-268.1502"/>
<polygon fill="#757575" stroke="#757575" points="563.0425,-271.4435 571.8963,-265.6245 561.3462,-264.6522 563.0425,-271.4435"/>
</g>
<!-- GameState.js -->
<g id="node3" class="node">
<title>GameState.js</title>
<path fill="none" stroke="#ff6c60" d="M312.3333,-146C312.3333,-146 223.6667,-146 223.6667,-146 219.8333,-146 216,-142.1667 216,-138.3333 216,-138.3333 216,-130.6667 216,-130.6667 216,-126.8333 219.8333,-123 223.6667,-123 223.6667,-123 312.3333,-123 312.3333,-123 316.1667,-123 320,-126.8333 320,-130.6667 320,-130.6667 320,-138.3333 320,-138.3333 320,-142.1667 316.1667,-146 312.3333,-146"/>
<text text-anchor="middle" x="268" y="-130.8" font-family="Arial" font-size="14.00" fill="#ff6c60">GameState.js</text>
</g>
<!-- CombatState.js&#45;&gt;GameState.js -->
<g id="edge2" class="edge">
<title>CombatState.js&#45;&gt;GameState.js</title>
<path fill="none" stroke="#757575" d="M106.8481,-162.9585C133.4584,-155.7943 172.7141,-147.1999 205.8184,-141.0914"/>
<polygon fill="#757575" stroke="#757575" points="206.6529,-144.4975 215.8739,-139.2798 205.4117,-137.6084 206.6529,-144.4975"/>
</g>
<!-- View.js -->
<g id="node4" class="node">
<title>View.js</title>
<path fill="none" stroke="#cfffac" d="M633.3333,-186C633.3333,-186 586.6667,-186 586.6667,-186 582.8333,-186 579,-182.1667 579,-178.3333 579,-178.3333 579,-170.6667 579,-170.6667 579,-166.8333 582.8333,-163 586.6667,-163 586.6667,-163 633.3333,-163 633.3333,-163 637.1667,-163 641,-166.8333 641,-170.6667 641,-170.6667 641,-178.3333 641,-178.3333 641,-182.1667 637.1667,-186 633.3333,-186"/>
<text text-anchor="middle" x="610" y="-170.8" font-family="Arial" font-size="14.00" fill="#cfffac">View.js</text>
</g>
<!-- CombatState.js&#45;&gt;View.js -->
<g id="edge3" class="edge">
<title>CombatState.js&#45;&gt;View.js</title>
<path fill="none" stroke="#757575" d="M134.1639,-174.5C242.9424,-174.5 474.6727,-174.5 568.8858,-174.5"/>
<polygon fill="#757575" stroke="#757575" points="568.8878,-178.0001 578.8877,-174.5 568.8877,-171.0001 568.8878,-178.0001"/>
</g>
<!-- Creature.js -->
<g id="node5" class="node">
<title>Creature.js</title>
<path fill="none" stroke="#cfffac" d="M782.3333,-226C782.3333,-226 710.6667,-226 710.6667,-226 706.8333,-226 703,-222.1667 703,-218.3333 703,-218.3333 703,-210.6667 703,-210.6667 703,-206.8333 706.8333,-203 710.6667,-203 710.6667,-203 782.3333,-203 782.3333,-203 786.1667,-203 790,-206.8333 790,-210.6667 790,-210.6667 790,-218.3333 790,-218.3333 790,-222.1667 786.1667,-226 782.3333,-226"/>
<text text-anchor="middle" x="746.5" y="-210.8" font-family="Arial" font-size="14.00" fill="#cfffac">Creature.js</text>
</g>
<!-- Enemy.js&#45;&gt;Creature.js -->
<g id="edge7" class="edge">
<title>Enemy.js&#45;&gt;Creature.js</title>
<path fill="none" stroke="#757575" d="M648.0229,-243.3578C663.3093,-238.8782 681.1311,-233.6557 697.3793,-228.8944"/>
<polygon fill="#757575" stroke="#757575" points="698.6438,-232.171 707.256,-226.0001 696.6753,-225.4535 698.6438,-232.171"/>
</g>
<!-- GameState.js&#45;&gt;CombatState.js -->
<g id="edge9" class="edge">
<title>GameState.js&#45;&gt;CombatState.js</title>
<path fill="none" stroke="#757575" d="M237.0977,-146.0561C212.0982,-152.7841 175.9634,-160.7704 144.2492,-166.7742"/>
<polygon fill="#757575" stroke="#757575" points="143.3223,-163.3863 134.1274,-168.6498 144.5977,-170.2692 143.3223,-163.3863"/>
</g>
<!-- Enemies.js -->
<g id="node9" class="node">
<title>Enemies.js</title>
<path fill="none" stroke="#c6c5fe" d="M486.8333,-146C486.8333,-146 414.1667,-146 414.1667,-146 410.3333,-146 406.5,-142.1667 406.5,-138.3333 406.5,-138.3333 406.5,-130.6667 406.5,-130.6667 406.5,-126.8333 410.3333,-123 414.1667,-123 414.1667,-123 486.8333,-123 486.8333,-123 490.6667,-123 494.5,-126.8333 494.5,-130.6667 494.5,-130.6667 494.5,-138.3333 494.5,-138.3333 494.5,-142.1667 490.6667,-146 486.8333,-146"/>
<text text-anchor="middle" x="450.5" y="-130.8" font-family="Arial" font-size="14.00" fill="#c6c5fe">Enemies.js</text>
</g>
<!-- GameState.js&#45;&gt;Enemies.js -->
<g id="edge10" class="edge">
<title>GameState.js&#45;&gt;Enemies.js</title>
<path fill="none" stroke="#757575" d="M320.2972,-134.5C344.0752,-134.5 372.1974,-134.5 396.2104,-134.5"/>
<polygon fill="#757575" stroke="#757575" points="396.2254,-138.0001 406.2254,-134.5 396.2254,-131.0001 396.2254,-138.0001"/>
</g>
<!-- MainMenuState.js -->
<g id="node11" class="node">
<title>MainMenuState.js</title>
<path fill="none" stroke="#ff6c60" d="M509.3333,-105C509.3333,-105 391.6667,-105 391.6667,-105 387.8333,-105 384,-101.1667 384,-97.3333 384,-97.3333 384,-89.6667 384,-89.6667 384,-85.8333 387.8333,-82 391.6667,-82 391.6667,-82 509.3333,-82 509.3333,-82 513.1667,-82 517,-85.8333 517,-89.6667 517,-89.6667 517,-97.3333 517,-97.3333 517,-101.1667 513.1667,-105 509.3333,-105"/>
<text text-anchor="middle" x="450.5" y="-89.8" font-family="Arial" font-size="14.00" fill="#ff6c60">MainMenuState.js</text>
</g>
<!-- GameState.js&#45;&gt;MainMenuState.js -->
<g id="edge11" class="edge">
<title>GameState.js&#45;&gt;MainMenuState.js</title>
<path fill="none" stroke="#757575" d="M296.9177,-122.9147C317.6851,-116.9012 346.7036,-109.8543 373.9313,-104.03"/>
<polygon fill="#757575" stroke="#757575" points="374.796,-107.4248 383.8629,-101.9437 373.3569,-100.5743 374.796,-107.4248"/>
</g>
<!-- Player.js -->
<g id="node12" class="node">
<title>Player.js</title>
<path fill="none" stroke="#c6c5fe" d="M478.3333,-226C478.3333,-226 422.6667,-226 422.6667,-226 418.8333,-226 415,-222.1667 415,-218.3333 415,-218.3333 415,-210.6667 415,-210.6667 415,-206.8333 418.8333,-203 422.6667,-203 422.6667,-203 478.3333,-203 478.3333,-203 482.1667,-203 486,-206.8333 486,-210.6667 486,-210.6667 486,-218.3333 486,-218.3333 486,-222.1667 482.1667,-226 478.3333,-226"/>
<text text-anchor="middle" x="450.5" y="-210.8" font-family="Arial" font-size="14.00" fill="#c6c5fe">Player.js</text>
</g>
<!-- GameState.js&#45;&gt;Player.js -->
<g id="edge12" class="edge">
<title>GameState.js&#45;&gt;Player.js</title>
<path fill="none" stroke="#757575" d="M294.5371,-146.1327C326.2547,-160.0363 379.4634,-183.3607 414.7747,-198.8396"/>
<polygon fill="#757575" stroke="#757575" points="413.6631,-202.1738 424.227,-202.9831 416.4735,-195.7627 413.6631,-202.1738"/>
</g>
<!-- StateMachine.js -->
<g id="node13" class="node">
<title>StateMachine.js</title>
<path fill="none" stroke="#c6c5fe" d="M502.8333,-23C502.8333,-23 398.1667,-23 398.1667,-23 394.3333,-23 390.5,-19.1667 390.5,-15.3333 390.5,-15.3333 390.5,-7.6667 390.5,-7.6667 390.5,-3.8333 394.3333,0 398.1667,0 398.1667,0 502.8333,0 502.8333,0 506.6667,0 510.5,-3.8333 510.5,-7.6667 510.5,-7.6667 510.5,-15.3333 510.5,-15.3333 510.5,-19.1667 506.6667,-23 502.8333,-23"/>
<text text-anchor="middle" x="450.5" y="-7.8" font-family="Arial" font-size="14.00" fill="#c6c5fe">StateMachine.js</text>
</g>
<!-- GameState.js&#45;&gt;StateMachine.js -->
<g id="edge13" class="edge">
<title>GameState.js&#45;&gt;StateMachine.js</title>
<path fill="none" stroke="#757575" d="M320.3916,-127.9558C330.3712,-124.8138 340.1387,-120.2149 348,-113.5 378.2644,-87.6492 354.1984,-57.883 384,-31.5 385.3033,-30.3462 386.671,-29.259 388.0919,-28.2345"/>
<polygon fill="#757575" stroke="#757575" points="389.9742,-31.1865 396.7305,-23.0254 386.3595,-25.192 389.9742,-31.1865"/>
</g>
<!-- Creature.test.js -->
<g id="node6" class="node">
<title>Creature.test.js</title>
<path fill="none" stroke="#c6c5fe" d="M659.3333,-145C659.3333,-145 560.6667,-145 560.6667,-145 556.8333,-145 553,-141.1667 553,-137.3333 553,-137.3333 553,-129.6667 553,-129.6667 553,-125.8333 556.8333,-122 560.6667,-122 560.6667,-122 659.3333,-122 659.3333,-122 663.1667,-122 667,-125.8333 667,-129.6667 667,-129.6667 667,-137.3333 667,-137.3333 667,-141.1667 663.1667,-145 659.3333,-145"/>
<text text-anchor="middle" x="610" y="-129.8" font-family="Arial" font-size="14.00" fill="#c6c5fe">Creature.test.js</text>
</g>
<!-- Creature.test.js&#45;&gt;Creature.js -->
<g id="edge4" class="edge">
<title>Creature.test.js&#45;&gt;Creature.js</title>
<path fill="none" stroke="#757575" d="M648.4346,-145.1012C654.7862,-147.548 661.1891,-150.3558 667,-153.5 688.6888,-165.2353 710.7333,-182.677 726.0899,-195.9077"/>
<polygon fill="#757575" stroke="#757575" points="724.0667,-198.7893 733.8886,-202.7619 728.6879,-193.5314 724.0667,-198.7893"/>
</g>
<!-- EmptyState.js -->
<g id="node7" class="node">
<title>EmptyState.js</title>
<path fill="none" stroke="#cfffac" d="M655.3333,-44C655.3333,-44 564.6667,-44 564.6667,-44 560.8333,-44 557,-40.1667 557,-36.3333 557,-36.3333 557,-28.6667 557,-28.6667 557,-24.8333 560.8333,-21 564.6667,-21 564.6667,-21 655.3333,-21 655.3333,-21 659.1667,-21 663,-24.8333 663,-28.6667 663,-28.6667 663,-36.3333 663,-36.3333 663,-40.1667 659.1667,-44 655.3333,-44"/>
<text text-anchor="middle" x="610" y="-28.8" font-family="Arial" font-size="14.00" fill="#cfffac">EmptyState.js</text>
</g>
<!-- EmptyState.test.js -->
<g id="node8" class="node">
<title>EmptyState.test.js</title>
<path fill="none" stroke="#c6c5fe" d="M509.3333,-64C509.3333,-64 391.6667,-64 391.6667,-64 387.8333,-64 384,-60.1667 384,-56.3333 384,-56.3333 384,-48.6667 384,-48.6667 384,-44.8333 387.8333,-41 391.6667,-41 391.6667,-41 509.3333,-41 509.3333,-41 513.1667,-41 517,-44.8333 517,-48.6667 517,-48.6667 517,-56.3333 517,-56.3333 517,-60.1667 513.1667,-64 509.3333,-64"/>
<text text-anchor="middle" x="450.5" y="-48.8" font-family="Arial" font-size="14.00" fill="#c6c5fe">EmptyState.test.js</text>
</g>
<!-- EmptyState.test.js&#45;&gt;EmptyState.js -->
<g id="edge5" class="edge">
<title>EmptyState.test.js&#45;&gt;EmptyState.js</title>
<path fill="none" stroke="#757575" d="M517.2182,-44.1341C526.9752,-42.9106 536.9997,-41.6536 546.686,-40.4391"/>
<polygon fill="#757575" stroke="#757575" points="547.1456,-43.9089 556.6324,-39.1919 546.2746,-36.9633 547.1456,-43.9089"/>
</g>
<!-- Enemies.js&#45;&gt;Enemy.js -->
<g id="edge6" class="edge">
<title>Enemies.js&#45;&gt;Enemy.js</title>
<path fill="none" stroke="#757575" d="M465.7935,-146.0061C493.708,-167.0076 553.0916,-211.6849 586.2876,-236.6599"/>
<polygon fill="#757575" stroke="#757575" points="584.4232,-239.6372 594.5184,-242.8524 588.6316,-234.0435 584.4232,-239.6372"/>
</g>
<!-- Enemy.test.js -->
<g id="node10" class="node">
<title>Enemy.test.js</title>
<path fill="none" stroke="#c6c5fe" d="M494.3333,-267C494.3333,-267 406.6667,-267 406.6667,-267 402.8333,-267 399,-263.1667 399,-259.3333 399,-259.3333 399,-251.6667 399,-251.6667 399,-247.8333 402.8333,-244 406.6667,-244 406.6667,-244 494.3333,-244 494.3333,-244 498.1667,-244 502,-247.8333 502,-251.6667 502,-251.6667 502,-259.3333 502,-259.3333 502,-263.1667 498.1667,-267 494.3333,-267"/>
<text text-anchor="middle" x="450.5" y="-251.8" font-family="Arial" font-size="14.00" fill="#c6c5fe">Enemy.test.js</text>
</g>
<!-- Enemy.test.js&#45;&gt;Enemy.js -->
<g id="edge8" class="edge">
<title>Enemy.test.js&#45;&gt;Enemy.js</title>
<path fill="none" stroke="#757575" d="M502.2851,-255.1753C521.3191,-255.056 542.7865,-254.9214 561.519,-254.804"/>
<polygon fill="#757575" stroke="#757575" points="561.634,-258.3034 571.6118,-254.7407 561.5901,-251.3035 561.634,-258.3034"/>
</g>
<!-- MainMenuState.js&#45;&gt;GameState.js -->
<g id="edge14" class="edge">
<title>MainMenuState.js&#45;&gt;GameState.js</title>
<path fill="none" stroke="#757575" d="M421.7231,-105.0445C397.2346,-112.1427 361.2,-120.6902 330.1737,-126.9679"/>
<polygon fill="#757575" stroke="#757575" points="329.4278,-123.5476 320.2972,-128.9217 330.7863,-130.4145 329.4278,-123.5476"/>
</g>
<!-- MainMenuState.js&#45;&gt;View.js -->
<g id="edge15" class="edge">
<title>MainMenuState.js&#45;&gt;View.js</title>
<path fill="none" stroke="#757575" d="M500.1442,-105.1013C506.0442,-107.4333 511.8072,-110.2076 517,-113.5 537.1997,-126.3071 533.1992,-140.0844 553,-153.5 557.9779,-156.8727 563.5659,-159.7848 569.2453,-162.274"/>
<polygon fill="#757575" stroke="#757575" points="568.2122,-165.6297 578.7979,-166.0709 570.7978,-159.1247 568.2122,-165.6297"/>
</g>
<!-- Player.js&#45;&gt;Creature.js -->
<g id="edge18" class="edge">
<title>Player.js&#45;&gt;Creature.js</title>
<path fill="none" stroke="#757575" d="M486.2045,-214.5C537.6601,-214.5 633.0481,-214.5 692.9595,-214.5"/>
<polygon fill="#757575" stroke="#757575" points="692.9857,-218.0001 702.9857,-214.5 692.9857,-211.0001 692.9857,-218.0001"/>
</g>
<!-- StateMachine.js&#45;&gt;EmptyState.js -->
<g id="edge20" class="edge">
<title>StateMachine.js&#45;&gt;EmptyState.js</title>
<path fill="none" stroke="#757575" d="M510.8001,-19.4392C522.5359,-20.9843 534.8701,-22.6083 546.6994,-24.1658"/>
<polygon fill="#757575" stroke="#757575" points="546.566,-27.6783 556.9373,-25.5137 547.4798,-20.7382 546.566,-27.6783"/>
</g>
<!-- MainMenuState.test.js -->
<g id="node14" class="node">
<title>MainMenuState.test.js</title>
<path fill="none" stroke="#c6c5fe" d="M340.3333,-105C340.3333,-105 195.6667,-105 195.6667,-105 191.8333,-105 188,-101.1667 188,-97.3333 188,-97.3333 188,-89.6667 188,-89.6667 188,-85.8333 191.8333,-82 195.6667,-82 195.6667,-82 340.3333,-82 340.3333,-82 344.1667,-82 348,-85.8333 348,-89.6667 348,-89.6667 348,-97.3333 348,-97.3333 348,-101.1667 344.1667,-105 340.3333,-105"/>
<text text-anchor="middle" x="268" y="-89.8" font-family="Arial" font-size="14.00" fill="#c6c5fe">MainMenuState.test.js</text>
</g>
<!-- MainMenuState.test.js&#45;&gt;MainMenuState.js -->
<g id="edge16" class="edge">
<title>MainMenuState.test.js&#45;&gt;MainMenuState.js</title>
<path fill="none" stroke="#757575" d="M348.0472,-93.5C356.5582,-93.5 365.2012,-93.5 373.674,-93.5"/>
<polygon fill="#757575" stroke="#757575" points="373.9043,-97.0001 383.9043,-93.5 373.9042,-90.0001 373.9043,-97.0001"/>
</g>
<!-- OptionsMenuState.js -->
<g id="node15" class="node">
<title>OptionsMenuState.js</title>
<path fill="none" stroke="#c6c5fe" d="M144.3333,-104C144.3333,-104 7.6667,-104 7.6667,-104 3.8333,-104 0,-100.1667 0,-96.3333 0,-96.3333 0,-88.6667 0,-88.6667 0,-84.8333 3.8333,-81 7.6667,-81 7.6667,-81 144.3333,-81 144.3333,-81 148.1667,-81 152,-84.8333 152,-88.6667 152,-88.6667 152,-96.3333 152,-96.3333 152,-100.1667 148.1667,-104 144.3333,-104"/>
<text text-anchor="middle" x="76" y="-88.8" font-family="Arial" font-size="14.00" fill="#c6c5fe">OptionsMenuState.js</text>
</g>
<!-- OptionsMenuState.js&#45;&gt;GameState.js -->
<g id="edge17" class="edge">
<title>OptionsMenuState.js&#45;&gt;GameState.js</title>
<path fill="none" stroke="#757575" d="M128.7188,-104.0322C152.5263,-109.2401 180.8253,-115.4305 205.6766,-120.8668"/>
<polygon fill="#757575" stroke="#757575" points="205.2144,-124.3483 215.7313,-123.0662 206.7103,-117.51 205.2144,-124.3483"/>
</g>
<!-- Player.test.js -->
<g id="node16" class="node">
<title>Player.test.js</title>
<path fill="none" stroke="#c6c5fe" d="M309.3333,-226C309.3333,-226 226.6667,-226 226.6667,-226 222.8333,-226 219,-222.1667 219,-218.3333 219,-218.3333 219,-210.6667 219,-210.6667 219,-206.8333 222.8333,-203 226.6667,-203 226.6667,-203 309.3333,-203 309.3333,-203 313.1667,-203 317,-206.8333 317,-210.6667 317,-210.6667 317,-218.3333 317,-218.3333 317,-222.1667 313.1667,-226 309.3333,-226"/>
<text text-anchor="middle" x="268" y="-210.8" font-family="Arial" font-size="14.00" fill="#c6c5fe">Player.test.js</text>
</g>
<!-- Player.test.js&#45;&gt;Player.js -->
<g id="edge19" class="edge">
<title>Player.test.js&#45;&gt;Player.js</title>
<path fill="none" stroke="#757575" d="M317.3871,-214.5C344.5992,-214.5 378.1528,-214.5 404.7643,-214.5"/>
<polygon fill="#757575" stroke="#757575" points="404.9637,-218.0001 414.9637,-214.5 404.9636,-211.0001 404.9637,-218.0001"/>
</g>
<!-- StateMachine.test.js -->
<g id="node17" class="node">
<title>StateMachine.test.js</title>
<path fill="none" stroke="#c6c5fe" d="M333.8333,-23C333.8333,-23 202.1667,-23 202.1667,-23 198.3333,-23 194.5,-19.1667 194.5,-15.3333 194.5,-15.3333 194.5,-7.6667 194.5,-7.6667 194.5,-3.8333 198.3333,0 202.1667,0 202.1667,0 333.8333,0 333.8333,0 337.6667,0 341.5,-3.8333 341.5,-7.6667 341.5,-7.6667 341.5,-15.3333 341.5,-15.3333 341.5,-19.1667 337.6667,-23 333.8333,-23"/>
<text text-anchor="middle" x="268" y="-7.8" font-family="Arial" font-size="14.00" fill="#c6c5fe">StateMachine.test.js</text>
</g>
<!-- StateMachine.test.js&#45;&gt;StateMachine.js -->
<g id="edge21" class="edge">
<title>StateMachine.test.js&#45;&gt;StateMachine.js</title>
<path fill="none" stroke="#757575" d="M341.7037,-11.5C354.3014,-11.5 367.3628,-11.5 379.8778,-11.5"/>
<polygon fill="#757575" stroke="#757575" points="380.2399,-15.0001 390.2399,-11.5 380.2398,-8.0001 380.2399,-15.0001"/>
</g>
<!-- index.js -->
<g id="node18" class="node">
<title>index.js</title>
<path fill="none" stroke="#c6c5fe" d="M101.3333,-145C101.3333,-145 50.6667,-145 50.6667,-145 46.8333,-145 43,-141.1667 43,-137.3333 43,-137.3333 43,-129.6667 43,-129.6667 43,-125.8333 46.8333,-122 50.6667,-122 50.6667,-122 101.3333,-122 101.3333,-122 105.1667,-122 109,-125.8333 109,-129.6667 109,-129.6667 109,-137.3333 109,-137.3333 109,-141.1667 105.1667,-145 101.3333,-145"/>
<text text-anchor="middle" x="76" y="-129.8" font-family="Arial" font-size="14.00" fill="#c6c5fe">index.js</text>
</g>
<!-- index.js&#45;&gt;GameState.js -->
<g id="edge22" class="edge">
<title>index.js&#45;&gt;GameState.js</title>
<path fill="none" stroke="#757575" d="M109.006,-133.6719C135.5148,-133.81 173.4971,-134.0078 205.6904,-134.1755"/>
<polygon fill="#757575" stroke="#757575" points="205.8993,-137.6765 215.9174,-134.2287 205.9358,-130.6766 205.8993,-137.6765"/>
</g>
</g>
</svg>
